<?xml version="1.0" encoding="UTF-8" standalone="no"?>
<!-- Created with Inkscape (http://www.inkscape.org/) -->
<svg
   xmlns:dc="http://purl.org/dc/elements/1.1/"
   xmlns:cc="http://web.resource.org/cc/"
   xmlns:rdf="http://www.w3.org/1999/02/22-rdf-syntax-ns#"
   xmlns:svg="http://www.w3.org/2000/svg"
   xmlns="http://www.w3.org/2000/svg"
   xmlns:sodipodi="http://inkscape.sourceforge.net/DTD/sodipodi-0.dtd"
   xmlns:inkscape="http://www.inkscape.org/namespaces/inkscape"
   width="64px"
   height="64px"
   id="svg7149"
   sodipodi:version="0.32"
   inkscape:version="0.42+0.43pre1"
   sodipodi:docbase="/tmp/icons"
   sodipodi:docname="exfalso.svg">
  <defs
     id="defs7151" />
  <sodipodi:namedview
     id="base"
     pagecolor="#ffffff"
     bordercolor="#666666"
     borderopacity="1.0"
     inkscape:pageopacity="0.0"
     inkscape:pageshadow="2"
     inkscape:zoom="4"
     inkscape:cx="46.614169"
     inkscape:cy="29.456316"
     inkscape:current-layer="layer1"
     showgrid="true"
     inkscape:document-units="px"
     inkscape:grid-bbox="true"
     inkscape:window-width="760"
     inkscape:window-height="539"
     inkscape:window-x="365"
     inkscape:window-y="250" />
  <metadata
     id="metadata7154">
    <rdf:RDF>
      <cc:Work
         rdf:about="">
        <dc:format>image/svg+xml</dc:format>
        <dc:type
           rdf:resource="http://purl.org/dc/dcmitype/StillImage" />
      </cc:Work>
    </rdf:RDF>
  </metadata>
  <g
     id="layer1"
     inkscape:label="Layer 1"
     inkscape:groupmode="layer">
    <path
       style="fill:#ffe0a0;fill-opacity:1;fill-rule:evenodd;stroke:none;stroke-width:0.45172381;stroke-linecap:butt;stroke-linejoin:miter;stroke-miterlimit:4;stroke-opacity:1"
       d="M 3.09375,0.59375 C 2.0694437,0.64852653 1.169891,1.2924258 0.78777414,2.2443662 C 0.40565723,3.1963066 0.61035086,4.2834597 1.3125,5.03125 C 4.5222124,8.4119488 5.1911591,10.69495 5.75,13.6875 C 6.3088409,16.68005 6.5730262,20.469238 8.6875,25.25 C 9.7797221,27.719487 11.454452,29.443913 13.3125,30.375 C 15.170548,31.306087 17.026104,31.510294 18.65625,31.625 C 20.163802,31.731079 21.382592,31.791904 22.5,32 C 21.383879,32.205424 20.163702,32.272745 18.65625,32.375 C 17.026212,32.48557 15.172551,32.665765 13.3125,33.59375 C 11.452449,34.521735 9.7799682,36.248691 8.6875,38.71875 C 6.5725728,43.500578 6.3090447,47.280366 5.75,50.28125 C 5.1909553,53.282134 4.5209362,55.589385 1.3125,58.96875 C 0.40908474,60.01424 0.46607533,61.579848 1.4431138,62.556886 C 2.4201523,63.533925 3.98576,63.590915 5.03125,62.6875 C 8.4106156,59.479053 10.717868,58.809042 13.71875,58.25 C 16.719632,57.690958 20.499419,57.427428 25.28125,55.3125 C 27.749452,54.220849 29.474486,52.574041 30.40625,50.71875 C 31.338014,48.863459 31.541515,47.001473 31.65625,45.375 C 31.761502,43.882959 31.827874,42.670311 32.03125,41.5625 C 32.232897,42.67521 32.27042,43.878482 32.375,45.375 C 32.48901,47.006459 32.694197,48.861084 33.625,50.71875 C 34.555803,52.576416 36.282656,54.252483 38.75,55.34375 C 43.534109,57.459704 47.320563,57.698748 50.3125,58.25 C 53.304437,58.801252 55.588525,59.478231 58.96875,62.6875 C 60.01424,63.590915 61.579848,63.533925 62.556886,62.556886 C 63.533925,61.579848 63.590915,60.01424 62.6875,58.96875 C 59.478241,55.588524 58.801258,53.30444 58.25,50.3125 C 57.698742,47.32056 57.459689,43.534097 55.34375,38.75 C 54.253307,36.28452 52.602902,34.559574 50.75,33.625 C 48.897098,32.690426 47.034149,32.493184 45.40625,32.375 C 43.900776,32.265704 42.680152,32.208546 41.5625,32 C 42.680151,31.791453 43.900778,31.734296 45.40625,31.625 C 47.034147,31.506816 48.897099,31.30957 50.75,30.375 C 52.602901,29.44043 54.253306,27.715476 55.34375,25.25 C 57.459702,20.46589 57.698747,16.679437 58.25,13.6875 C 58.801253,10.695563 59.478231,8.4114756 62.6875,5.03125 C 63.590915,3.98576 63.533925,2.4201523 62.556886,1.4431138 C 61.579848,0.46607533 60.01424,0.40908474 58.96875,1.3125 C 55.588511,4.5217606 53.304437,5.1987418 50.3125,5.75 C 47.320563,6.3012582 43.534096,6.5403107 38.75,8.65625 C 36.282656,9.7475168 34.555804,11.423584 33.625,13.28125 C 32.694196,15.138916 32.48901,16.993541 32.375,18.625 C 32.27042,20.121518 32.232897,21.324789 32.03125,22.4375 C 31.827874,21.329686 31.761503,20.117041 31.65625,18.625 C 31.541513,16.998528 31.338016,15.136539 30.40625,13.28125 C 29.474484,11.425961 27.74945,9.7791501 25.28125,8.6875 C 20.49942,6.5725724 16.719632,6.3090419 13.71875,5.75 C 10.717868,5.1909581 8.4106156,4.5209462 5.03125,1.3125 C 4.5101288,0.8192504 3.810481,0.55970367 3.09375,0.59375 L 3.09375,0.59375 z "
       id="path7160" />
    <path
       style="fill:#000000;fill-opacity:1;fill-rule:evenodd;stroke:#000000;stroke-width:0.45172381;stroke-linecap:butt;stroke-linejoin:miter;stroke-miterlimit:4;stroke-dasharray:none;stroke-opacity:1"
       d="M 3.225862,3.2258619 C 10.293855,10.670378 7.2267731,15.432756 11.104821,24.200907 C 14.703646,32.33776 22.537595,26.247279 27.900824,32.000012 C 22.537619,37.752698 14.676989,31.635631 11.078188,39.772482 C 7.2001631,48.540657 10.293833,53.329622 3.225862,60.774138 C 10.670379,53.706145 15.459344,56.799838 24.227519,52.921813 C 32.364394,49.322988 26.273891,41.489039 32.026646,36.125811 C 37.738415,41.489645 31.672151,49.353995 39.799117,52.948423 C 48.569221,56.827332 53.327994,53.704587 60.774138,60.774138 C 53.704611,53.327994 56.827308,48.569198 52.948424,39.799117 C 49.353996,31.672151 41.516256,37.711805 36.152422,32.000012 C 41.516256,26.288196 49.353996,32.327851 52.948424,24.200907 C 56.827332,15.430802 53.704587,10.672006 60.774138,3.2258619 C 53.327971,10.29539 48.569198,7.1726917 39.799117,11.051577 C 31.672151,14.646005 37.738415,22.510379 32.026646,27.874213 C 26.273914,22.510961 32.364394,14.677012 24.227519,11.078187 C 15.459344,7.2001627 10.670379,10.293855 3.225862,3.2258619 z "
       id="path7057"
       sodipodi:nodetypes="cscscscscscscscsc" />
  </g>
</svg>
