<?xml version="1.0" encoding="UTF-8" standalone="no"?>
<!-- Created with Inkscape (http://www.inkscape.org/) -->
<svg
   xmlns:dc="http://purl.org/dc/elements/1.1/"
   xmlns:cc="http://web.resource.org/cc/"
   xmlns:rdf="http://www.w3.org/1999/02/22-rdf-syntax-ns#"
   xmlns:svg="http://www.w3.org/2000/svg"
   xmlns="http://www.w3.org/2000/svg"
   xmlns:sodipodi="http://inkscape.sourceforge.net/DTD/sodipodi-0.dtd"
   xmlns:inkscape="http://www.inkscape.org/namespaces/inkscape"
   width="64px"
   height="64px"
   id="svg7163"
   sodipodi:version="0.32"
   inkscape:version="0.42+0.43pre1"
   sodipodi:docbase="/tmp/icons"
   sodipodi:docname="quodlibet.svg">
  <defs
     id="defs7165" />
  <sodipodi:namedview
     id="base"
     pagecolor="#ffffff"
     bordercolor="#666666"
     borderopacity="1.0"
     inkscape:pageopacity="0.0"
     inkscape:pageshadow="2"
     inkscape:zoom="5.5"
     inkscape:cx="40.089217"
     inkscape:cy="28.28147"
     inkscape:current-layer="layer1"
     showgrid="true"
     inkscape:document-units="px"
     inkscape:grid-bbox="true"
     inkscape:window-width="794"
     inkscape:window-height="610"
     inkscape:window-x="226"
     inkscape:window-y="155" />
  <metadata
     id="metadata7168">
    <rdf:RDF>
      <cc:Work
         rdf:about="">
        <dc:format>image/svg+xml</dc:format>
        <dc:type
           rdf:resource="http://purl.org/dc/dcmitype/StillImage" />
      </cc:Work>
    </rdf:RDF>
  </metadata>
  <g
     id="layer1"
     inkscape:label="Layer 1"
     inkscape:groupmode="layer">
    <path
       sodipodi:type="inkscape:offset"
       inkscape:radius="1.5540466"
       inkscape:original="M 21.84375 3.21875 C 17.358099 2.9855661 14.506531 8.39967 17.34375 11.9375 C 20.158037 16.367385 26.904196 19.065686 31.46875 15.75 C 31.468751 30.757262 31.46875 45.773987 31.46875 60.78125 C 34.186362 61.527957 32.985555 58.475381 33.625 56.75 C 34.898746 50.234805 41.111978 46.848847 45.125 42.1875 C 48.409629 38.385164 48.847438 32.585358 45.96875 28.375 C 45.153374 27.182432 42.539617 22.288902 42.9375 23.21875 C 44.712778 27.036219 46.981889 31.327964 45.90625 35.65625 C 44.542655 40.846778 39.590073 44.131032 34.5 44.9375 C 33.199111 45.134427 33.254401 44.754674 33.125 42.59375 C 33.125001 31.86679 33.125 21.133214 33.125 10.40625 C 31.420434 6.0262632 26.476727 3.0761809 21.84375 3.21875 z M 22.375 4.59375 C 26.684879 4.3838461 31.885247 7.850193 31.34375 12.5625 C 30.226363 16.731453 24.517523 16.418917 21.625 14.375 C 18.410066 12.81653 16.045629 7.4167627 19.9375 5.25 C 20.682535 4.8388255 21.529606 4.6453834 22.375 4.59375 z "
       style="fill:#ffe0a0;fill-opacity:1;fill-rule:nonzero;stroke:none;stroke-width:0.2083538;stroke-linecap:butt;stroke-linejoin:round;stroke-miterlimit:4;stroke-opacity:1"
       id="path7174"
       d="M 21.78125,1.65625 L 21.78125,1.6875 C 16.165367,1.5296657 12.595671,8.2846852 16.03125,12.78125 C 16.058945,12.824844 16.096719,12.863005 16.125,12.90625 C 17.76322,15.411237 20.364637,17.308907 23.28125,18.21875 C 25.407233,18.881955 27.741294,18.944176 29.90625,18.21875 C 29.906251,32.404195 29.90625,46.596731 29.90625,60.78125 C 29.907333,61.485458 30.381767,62.100939 31.0625,62.28125 C 31.974552,62.531851 32.980154,62.565123 33.78125,61.96875 C 34.582346,61.372377 34.792134,60.520636 34.875,59.90625 C 35.040733,58.677479 34.987964,57.566686 35.09375,57.28125 C 35.119899,57.209958 35.140789,57.136846 35.15625,57.0625 C 35.711554,54.222129 37.348442,52.023466 39.46875,49.875 C 41.589058,47.726534 44.168646,45.677705 46.3125,43.1875 C 50.063513,38.845271 50.545411,32.319856 47.25,27.5 C 46.964606,27.082583 46.048567,25.504782 45.34375,24.25 C 44.991342,23.622609 44.684272,23.057663 44.46875,22.6875 C 44.360989,22.502419 44.326774,22.417314 44.15625,22.1875 C 44.113619,22.130046 44.246147,22.112982 43.71875,21.78125 C 43.652825,21.739783 43.437908,21.656405 43.4375,21.65625 C 43.437092,21.656095 42.906579,21.562503 42.90625,21.5625 C 42.905921,21.562497 42.093999,21.781099 42.09375,21.78125 C 42.093501,21.781401 41.531419,22.343445 41.53125,22.34375 C 41.531081,22.344055 41.375089,22.812039 41.375,22.8125 C 41.374911,22.812961 41.344576,23.023135 41.34375,23.09375 C 41.342098,23.234979 41.364686,23.313672 41.375,23.375 C 41.457514,23.865624 41.463096,23.757506 41.5,23.84375 C 41.510268,23.854314 41.520686,23.864732 41.53125,23.875 C 43.332241,27.74776 45.300525,31.682759 44.40625,35.28125 C 43.279573,39.569951 39.161224,42.423819 34.75,43.28125 C 34.721674,43.051435 34.724083,43.082672 34.6875,42.59375 C 34.6875,42.562506 34.6875,42.531244 34.6875,42.5 C 34.687501,31.804245 34.6875,21.10197 34.6875,10.40625 C 34.681259,10.212598 34.638864,10.021819 34.5625,9.84375 C 32.594891,4.787858 27.212685,1.5919326 21.9375,1.6875 L 21.9375,1.65625 C 21.905108,1.6545661 21.876009,1.6574744 21.84375,1.65625 C 21.823106,1.6567831 21.80189,1.6556149 21.78125,1.65625 z M 22.4375,6.15625 L 22.46875,6.15625 C 24.172662,6.0821577 26.229122,6.7605255 27.6875,7.9375 C 29.116056,9.0904068 29.925436,10.555268 29.78125,12.25 C 29.374378,13.586822 28.459268,14.108121 27,14.25 C 25.494354,14.396388 23.614484,13.859186 22.53125,13.09375 C 22.461836,13.046232 22.388679,13.004428 22.3125,12.96875 C 21.204411,12.431593 20.002097,10.976759 19.625,9.625 C 19.436452,8.9491203 19.436312,8.3212645 19.59375,7.84375 C 19.751188,7.3662355 20.01265,6.9694666 20.6875,6.59375 C 21.168691,6.3281871 21.777848,6.2002604 22.4375,6.15625 z "
       transform="translate(0.000000,-0.181818)" />
    <path
       style="fill:#000000;fill-opacity:1;fill-rule:nonzero;stroke:#000000;stroke-width:0.2083538;stroke-linecap:butt;stroke-linejoin:round;stroke-miterlimit:4;stroke-opacity:1"
       d="M 21.836482,3.023159 C 17.35083,2.7899752 14.5044,8.2136588 17.341619,11.751489 C 20.155906,16.181374 26.890929,18.892168 31.455483,15.576482 C 31.455483,30.583744 31.455483,45.591002 31.455483,60.598265 C 34.173094,61.344972 32.98045,58.300301 33.619895,56.57492 C 34.893642,50.059724 41.126616,46.671892 45.139638,42.010545 C 48.424266,38.20821 48.85887,32.397623 45.980182,28.187265 C 45.164807,26.994697 42.52687,22.099283 42.924753,23.029131 C 44.700029,26.8466 46.980291,31.132776 45.904652,35.461062 C 44.541057,40.651589 39.576553,43.964337 34.48648,44.770805 C 33.185592,44.96773 33.269077,44.570535 33.139676,42.409611 C 33.139676,31.682653 33.139676,20.955693 33.139676,10.228729 C 31.435109,5.8487423 26.469459,2.8805899 21.836482,3.023159 z M 22.374729,4.4121848 C 26.684608,4.2022811 31.88088,7.6779948 31.339383,12.390302 C 30.221995,16.559255 24.52753,16.248831 21.635007,14.204914 C 18.420074,12.646444 16.046674,7.2464189 19.938545,5.0796562 C 20.68358,4.6684819 21.529335,4.4638182 22.374729,4.4121848 z "
       id="path7097"
       sodipodi:nodetypes="ccccccsccccccccccc" />
  </g>
</svg>
