<?xml version="1.0" encoding="UTF-8" standalone="no"?>
<!-- Created with Inkscape (http://www.inkscape.org/) -->

<svg
   xmlns:dc="http://purl.org/dc/elements/1.1/"
   xmlns:cc="http://creativecommons.org/ns#"
   xmlns:rdf="http://www.w3.org/1999/02/22-rdf-syntax-ns#"
   xmlns:svg="http://www.w3.org/2000/svg"
   xmlns="http://www.w3.org/2000/svg"
   xmlns:xlink="http://www.w3.org/1999/xlink"
   xmlns:sodipodi="http://sodipodi.sourceforge.net/DTD/sodipodi-0.dtd"
   xmlns:inkscape="http://www.inkscape.org/namespaces/inkscape"
   width="64"
   height="64"
   id="svg7163"
   sodipodi:version="0.32"
   inkscape:version="0.48.1 r9760"
   sodipodi:docname="quodlibet.svg"
   inkscape:export-filename="/home/lazka/Desktop/afaf.png"
   inkscape:export-xdpi="90.000000"
   inkscape:export-ydpi="90.000000"
   version="1.1">
  <defs
     id="defs7165">
    <linearGradient
       id="linearGradient2854">
      <stop
         style="stop-color:#0a0a0a;stop-opacity:1.0000000;"
         offset="0.0000000"
         id="stop2856" />
      <stop
         style="stop-color:#224354;stop-opacity:1.0000000;"
         offset="1.0000000"
         id="stop2858" />
    </linearGradient>
    <linearGradient
       inkscape:collect="always"
       xlink:href="#linearGradient2854"
       id="linearGradient2092"
       gradientUnits="userSpaceOnUse"
       gradientTransform="translate(-0.802232,-1.7937)"
       x1="22.892284"
       y1="53.865356"
       x2="6.6690922"
       y2="2.7937005" />
    <linearGradient
       inkscape:collect="always"
       xlink:href="#linearGradient2854"
       id="linearGradient2094"
       gradientUnits="userSpaceOnUse"
       gradientTransform="translate(-0.802232,-1.7937)"
       x1="22.892284"
       y1="53.865356"
       x2="6.6690922"
       y2="2.7937005" />
    <linearGradient
       inkscape:collect="always"
       xlink:href="#linearGradient2854"
       id="linearGradient2832"
       gradientUnits="userSpaceOnUse"
       gradientTransform="translate(-0.802232,-1.7937)"
       x1="22.892284"
       y1="53.865356"
       x2="6.6690922"
       y2="2.7937005" />
    <linearGradient
       inkscape:collect="always"
       xlink:href="#linearGradient2854"
       id="linearGradient2834"
       gradientUnits="userSpaceOnUse"
       gradientTransform="translate(-0.802232,-1.7937)"
       x1="22.892284"
       y1="53.865356"
       x2="6.6690922"
       y2="2.7937005" />
    <linearGradient
       inkscape:collect="always"
       xlink:href="#linearGradient2854"
       id="linearGradient2807"
       gradientUnits="userSpaceOnUse"
       gradientTransform="matrix(0.25988,0,0,0.25988,0.03158064,-0.587767)"
       x1="22.892284"
       y1="53.865356"
       x2="10.679447"
       y2="8.5585861" />
    <linearGradient
       inkscape:collect="always"
       xlink:href="#linearGradient2854"
       id="linearGradient5092"
       x1="5.9066291"
       y1="13.653723"
       x2="2.6446903"
       y2="1.5526923"
       gradientUnits="userSpaceOnUse"
       gradientTransform="matrix(0.973,0,0,0.973,0.233667,0.125665)" />
    <linearGradient
       inkscape:collect="always"
       xlink:href="#linearGradient2854"
       id="linearGradient5104"
       gradientUnits="userSpaceOnUse"
       gradientTransform="matrix(0.25988,0,0,0.25988,0.03158064,-0.587767)"
       x1="22.892284"
       y1="53.865356"
       x2="10.679447"
       y2="8.5585861" />
    <linearGradient
       inkscape:collect="always"
       xlink:href="#linearGradient2854"
       id="linearGradient5106"
       gradientUnits="userSpaceOnUse"
       gradientTransform="matrix(0.973,0,0,0.973,0.233667,0.125665)"
       x1="5.9066291"
       y1="13.653723"
       x2="2.6446903"
       y2="1.5526923" />
    <linearGradient
       inkscape:collect="always"
       xlink:href="#linearGradient2854"
       id="linearGradient5109"
       gradientUnits="userSpaceOnUse"
       gradientTransform="matrix(0.25988,0,0,0.25988,0.09824731,-0.587767)"
       x1="22.892284"
       y1="53.865356"
       x2="10.679447"
       y2="8.5585861" />
    <linearGradient
       inkscape:collect="always"
       xlink:href="#linearGradient2854"
       id="linearGradient5111"
       gradientUnits="userSpaceOnUse"
       gradientTransform="matrix(0.973,0,0,0.973,0.300334,0.125665)"
       x1="5.9066291"
       y1="13.653723"
       x2="2.6446903"
       y2="1.5526923" />
    <linearGradient
       inkscape:collect="always"
       xlink:href="#linearGradient2854"
       id="linearGradient5118"
       gradientUnits="userSpaceOnUse"
       gradientTransform="matrix(0.25988,0,0,0.25988,0.09824731,-0.587767)"
       x1="22.892284"
       y1="53.865356"
       x2="10.679447"
       y2="8.5585861" />
    <linearGradient
       inkscape:collect="always"
       xlink:href="#linearGradient2854"
       id="linearGradient5120"
       gradientUnits="userSpaceOnUse"
       gradientTransform="matrix(0.973,0,0,0.973,0.300334,0.125665)"
       x1="5.9066291"
       y1="13.653723"
       x2="2.6446903"
       y2="1.5526923" />
  </defs>
  <sodipodi:namedview
     id="base"
     pagecolor="#5d5d5d"
     bordercolor="#555555"
     borderopacity="1.0000000"
     inkscape:pageopacity="0"
     inkscape:pageshadow="2"
     inkscape:zoom="3.609375"
     inkscape:cx="25.114542"
     inkscape:cy="27.205567"
     inkscape:current-layer="layer1"
     showgrid="true"
     inkscape:document-units="px"
     inkscape:grid-bbox="true"
     inkscape:window-width="836"
     inkscape:window-height="645"
     inkscape:window-x="420"
     inkscape:window-y="139"
     showborder="true"
     inkscape:showpageshadow="true"
     borderlayer="false"
     inkscape:window-maximized="0">
    <inkscape:grid
       id="GridFromPre046Settings"
       type="xygrid"
       originx="0px"
       originy="0px"
       spacingx="1px"
       spacingy="1px"
       color="#3f3fff"
       empcolor="#3f3fff"
       opacity="1.0000000"
       empopacity="1.0000000"
       empspacing="5"
       visible="true"
       enabled="true"
       snapvisiblegridlinesonly="true" />
  </sodipodi:namedview>
  <metadata
     id="metadata7168">
    <rdf:RDF>
      <cc:Work
         rdf:about="">
        <dc:format>image/svg+xml</dc:format>
        <dc:type
           rdf:resource="http://purl.org/dc/dcmitype/StillImage" />
      </cc:Work>
    </rdf:RDF>
  </metadata>
  <g
     id="layer1"
     inkscape:label="Layer 1"
     inkscape:groupmode="layer"
     transform="translate(0,48)">
    <g
       id="g5114"
       transform="matrix(3.6029398,0,0,3.400543,0.36001876,-43.177329)">
      <path
         style="fill:#ffffff;fill-opacity:1;fill-rule:nonzero;stroke:#ffffff;stroke-width:0.48575303;stroke-linecap:butt;stroke-linejoin:round;stroke-miterlimit:4;stroke-opacity:1;stroke-dasharray:none"
         d="M 6.1798534,1.0573299 C 5.0141243,0.99673022 4.2895164,1.7840048 4.5668343,2.7286013 5.2308964,4.5646865 7.6934008,4.8480274 8.879635,3.9863485 c 0,3.9000804 -0.3928676,7.8451175 -0.3928676,11.7451985 0.9727608,0.02685 0.9829249,0.04966 1.1466624,-0.754613 C 9.8010183,12.729655 11.131473,12.715028 12.174375,11.503639 13.027983,10.51549 13.723642,8.6636809 12.85172,7.4969664 12.429953,6.9326025 11.290195,5.281491 11.393597,5.5231395 c 0.461358,0.9920821 1.520618,2.7726382 1.241082,3.8974712 -0.35437,1.3489113 -1.644544,2.2098273 -2.9673493,2.4194113 -0.3380747,0.05118 -0.1529459,-0.05205 -0.1865746,-0.613626 0,-2.7877165 0,-5.2983777 0,-8.0860965 C 9.037773,2.0020309 7.3838694,1.0202791 6.1798534,1.0573299 z m 0.4398794,0.060979 C 7.7397822,1.0637596 8.990187,2.2003597 8.849463,3.4249919 8.5590767,4.5084177 7.0138286,4.2199527 6.2621211,3.6887805 5.4266258,3.2837657 4.6752007,1.8548689 5.6866184,1.2917715 5.8802378,1.1849157 6.1333655,1.1317278 6.6197328,1.1183093 z"
         id="path5094"
         sodipodi:nodetypes="ccccccsccccccccccc"
         inkscape:connector-curvature="0" />
      <path
         sodipodi:nodetypes="ccccccsccccccccccc"
         id="path7097"
         d="M 5.7731025,0.24514103 C 4.6073734,0.18454132 3.8676444,1.5940457 4.6049796,2.5134553 5.3363552,3.664692 7.0866499,4.3691719 8.2728841,3.507493 c 0,3.9000803 0.01599,8.288006 0.01599,12.188087 0.7062515,0.194054 0.3803181,-1.08504 0.5464968,-1.533432 0.3310208,-1.693166 1.9508431,-2.573594 2.9937451,-3.784983 0.853608,-0.988149 0.966553,-2.4982017 0.21844,-3.5923875 C 11.835657,6.4748534 11.150111,5.2026355 11.253513,5.444284 11.714871,6.4363661 12.307464,7.5502555 12.027928,8.6750885 11.673558,10.024 10.383384,10.884916 9.0605786,11.0945 8.7225041,11.14568 8.7442001,11.04245 8.7105714,10.480874 c 0,-2.7877167 0,-5.5754342 0,-8.363153 C 8.2675893,0.97945235 6.9771185,0.20809023 5.7731025,0.24514103 z M 5.9129819,0.60612042 C 7.0330313,0.55157074 8.3834361,1.4548375 8.2427121,2.6794697 7.9523258,3.7628955 6.4724508,3.6822227 5.7207433,3.1510505 4.885248,2.7460357 4.2684498,1.34268 5.2798675,0.77958257 5.4734869,0.67272679 5.6932813,0.61953887 5.9129819,0.60612042 z"
         style="fill:url(#linearGradient5118);fill-opacity:1;fill-rule:nonzero;stroke:url(#linearGradient5120);stroke-width:0.48575303;stroke-linecap:butt;stroke-linejoin:round;stroke-miterlimit:4;stroke-opacity:1;stroke-dasharray:none"
         inkscape:connector-curvature="0" />
    </g>
  </g>
</svg>
