<?xml version="1.0" encoding="UTF-8" standalone="no"?>
<!-- Created with Inkscape (http://www.inkscape.org/) -->

<svg
   xmlns:dc="http://purl.org/dc/elements/1.1/"
   xmlns:cc="http://creativecommons.org/ns#"
   xmlns:rdf="http://www.w3.org/1999/02/22-rdf-syntax-ns#"
   xmlns:svg="http://www.w3.org/2000/svg"
   xmlns="http://www.w3.org/2000/svg"
   xmlns:sodipodi="http://sodipodi.sourceforge.net/DTD/sodipodi-0.dtd"
   xmlns:inkscape="http://www.inkscape.org/namespaces/inkscape"
   width="128"
   height="128"
   id="svg7149"
   sodipodi:version="0.32"
   inkscape:version="0.92.1 r15371"
   sodipodi:docname="_temp.svg"
   inkscape:export-filename="/home/bene/Desktop/exfalso.png"
   inkscape:export-xdpi="90.000000"
   inkscape:export-ydpi="90.000000"
   version="1.1">
  <defs
     id="defs7151" />
  <sodipodi:namedview
     id="base"
     pagecolor="#ffffff"
     bordercolor="#666666"
     borderopacity="1.0"
     inkscape:pageopacity="0"
     inkscape:pageshadow="2"
     inkscape:zoom="0.70710678"
     inkscape:cx="-396.18388"
     inkscape:cy="51.581946"
     inkscape:current-layer="layer1"
     showgrid="true"
     inkscape:document-units="px"
     inkscape:grid-bbox="true"
     inkscape:window-width="1366"
     inkscape:window-height="674"
     inkscape:window-x="0"
     inkscape:window-y="26"
     inkscape:window-maximized="1" />
  <metadata
     id="metadata7154">
    <rdf:RDF>
      <cc:Work
         rdf:about="">
        <dc:format>image/svg+xml</dc:format>
        <dc:type
           rdf:resource="http://purl.org/dc/dcmitype/StillImage" />
        <dc:title />
      </cc:Work>
    </rdf:RDF>
  </metadata>
  <g
     id="layer1"
     inkscape:label="Layer 1"
     inkscape:groupmode="layer"
     transform="translate(0,64)">
    <path
       style="color:#000000;font-style:normal;font-variant:normal;font-weight:normal;font-stretch:normal;font-size:medium;line-height:normal;font-family:sans-serif;font-variant-ligatures:normal;font-variant-position:normal;font-variant-caps:normal;font-variant-numeric:normal;font-variant-alternates:normal;font-feature-settings:normal;text-indent:0;text-align:start;text-decoration:none;text-decoration-line:none;text-decoration-style:solid;text-decoration-color:#000000;letter-spacing:normal;word-spacing:normal;text-transform:none;writing-mode:lr-tb;direction:ltr;text-orientation:mixed;dominant-baseline:auto;baseline-shift:baseline;text-anchor:start;white-space:normal;shape-padding:0;clip-rule:nonzero;display:inline;overflow:visible;visibility:visible;opacity:1;isolation:auto;mix-blend-mode:normal;color-interpolation:sRGB;color-interpolation-filters:linearRGB;solid-color:#000000;solid-opacity:1;vector-effect:none;fill:#bebebe;fill-opacity:1;fill-rule:evenodd;stroke:none;stroke-width:10;stroke-linecap:butt;stroke-linejoin:round;stroke-miterlimit:4;stroke-dasharray:none;stroke-dashoffset:0;stroke-opacity:1;color-rendering:auto;image-rendering:auto;shape-rendering:auto;text-rendering:auto;enable-background:accumulate"
       d="M 121.66797 1.4648438 A 5.0005 5.0005 0 0 0 118.10547 2.8261719 C 111.31159 9.2763989 106.67817 10.65355 100.66797 11.751953 C 94.657767 12.850356 87.106134 13.31628 77.576172 17.53125 C 72.685418 19.694353 69.279158 22.98525 67.447266 26.648438 C 65.615374 30.311625 65.250422 33.99794 65.025391 37.253906 C 64.782169 40.773062 64.67956 43.64986 64.03125 46.197266 C 63.376794 43.658497 63.274847 40.794629 63.03125 37.283203 C 62.805987 34.03606 62.443967 30.355103 60.611328 26.695312 C 58.77869 23.035523 55.369719 19.748158 50.476562 17.583984 C 40.950616 13.37081 33.392724 12.89107 27.367188 11.779297 C 21.34165 10.667524 16.68664 9.2747539 9.8945312 2.8261719 A 5.0005 5.0005 0 0 0 2.8261719 9.8945312 C 9.2789573 16.691067 10.684677 21.341988 11.808594 27.353516 C 12.932511 33.365043 13.425984 40.903483 17.636719 50.423828 C 19.800894 55.316975 23.088258 58.724011 26.748047 60.556641 C 30.407836 62.389271 34.088799 62.751303 37.335938 62.976562 C 40.870775 63.221781 43.747884 63.329017 46.298828 63.996094 C 43.745254 64.658468 40.861514 64.7586 37.320312 64.996094 C 34.067065 65.214275 30.380626 65.566319 26.712891 67.392578 C 23.045155 69.218837 19.749478 72.627278 17.583984 77.523438 C 13.370811 87.04938 12.891076 94.607272 11.779297 100.63281 C 10.667518 106.65835 9.2747338 111.31336 2.8261719 118.10547 A 5.0005 5.0005 0 0 0 9.8945312 125.17383 C 16.68664 118.72525 21.34165 117.33248 27.367188 116.2207 C 33.392724 115.10893 40.950616 114.62919 50.476562 110.41602 C 55.36972 108.25184 58.778694 104.96448 60.611328 101.30469 C 62.443963 97.644897 62.804037 93.963936 63.029297 90.716797 C 63.27289 87.205376 63.376794 84.34149 64.03125 81.802734 C 64.67956 84.350135 64.782169 87.226944 65.025391 90.746094 C 65.250422 94.002055 65.615373 97.68838 67.447266 101.35156 C 69.279159 105.01475 72.685419 108.30565 77.576172 110.46875 C 87.106162 114.68375 94.657768 115.14965 100.66797 116.24805 C 106.67817 117.34644 111.31162 118.72359 118.10547 125.17383 A 5.0005 5.0005 0 0 0 125.17383 118.10547 C 118.7236 111.31162 117.34645 106.67817 116.24805 100.66797 C 115.14964 94.657763 114.68372 87.106136 110.46875 77.576172 C 108.30698 72.68843 105.02633 69.281611 101.37109 67.443359 C 97.71586 65.605108 94.033069 65.23212 90.783203 65 C 87.288061 64.750362 84.426135 64.643669 81.890625 64 C 84.426133 63.356326 87.288065 63.249638 90.783203 63 C 94.033066 62.76788 97.715861 62.394884 101.37109 60.556641 C 105.02633 58.718397 108.30698 55.311561 110.46875 50.423828 C 114.68374 40.893836 115.14966 33.342242 116.24805 27.332031 C 117.34644 21.32182 118.72358 16.688376 125.17383 9.8945312 A 5.0005 5.0005 0 0 0 121.66797 1.4648438 z M 107.63086 20.369141 C 107.11021 22.131312 106.71705 23.855898 106.41016 25.535156 C 105.15706 32.391866 104.86704 38.368689 101.32422 46.378906 C 99.891562 49.618117 98.517975 50.797766 96.876953 51.623047 C 95.235932 52.448328 92.980838 52.817648 90.072266 53.025391 C 84.255121 53.440877 75.457928 53.339344 68.660156 60.578125 A 5.0005 5.0005 0 0 0 68.660156 67.421875 C 75.457933 74.660633 84.255127 74.559124 90.072266 74.974609 C 92.980835 75.182352 95.235932 75.551669 96.876953 76.376953 C 98.517974 77.202237 99.89156 78.38187 101.32422 81.621094 C 104.86702 89.631292 105.15705 95.608141 106.41016 102.46484 C 106.71705 104.1441 107.11021 105.86869 107.63086 107.63086 C 105.86869 107.11021 104.1441 106.71705 102.46484 106.41016 C 95.608149 105.15706 89.631312 104.86704 81.621094 101.32422 C 78.38488 99.892893 77.212287 98.52196 76.390625 96.878906 C 75.568963 95.235853 75.203473 92.97242 75.001953 90.056641 C 74.598913 84.225082 74.721129 75.410682 67.476562 68.607422 A 5.0005 5.0005 0 0 0 60.644531 68.59375 C 53.359899 75.385129 53.45848 84.204693 53.054688 90.025391 C 52.85279 92.93574 52.489888 95.190644 51.669922 96.828125 C 50.849956 98.465606 49.675359 99.836834 46.431641 101.27148 C 38.421237 104.81436 32.422508 105.11918 25.552734 106.38672 C 23.872159 106.6968 22.147303 107.09243 20.384766 107.61523 C 20.90757 105.8527 21.303197 104.12784 21.613281 102.44727 C 22.88083 95.577495 23.185639 89.578766 26.728516 81.568359 C 28.161823 78.327667 29.530395 77.160112 31.169922 76.34375 C 32.809449 75.527388 35.072666 75.168325 37.990234 74.972656 C 43.82537 74.581318 52.662173 74.700559 59.458984 67.410156 A 5.0005 5.0005 0 0 0 59.458984 60.589844 C 52.667601 53.305236 43.849995 53.405745 38.029297 53.001953 C 35.118948 52.800057 32.862092 52.4352 31.224609 51.615234 C 29.587127 50.795269 28.217852 49.622612 26.783203 46.378906 C 23.237841 38.362949 22.920693 32.372809 21.638672 25.515625 C 21.32696 23.848361 20.927467 22.136264 20.40625 20.388672 C 22.161229 20.908235 23.879058 21.304471 25.552734 21.613281 C 32.422508 22.880825 38.421237 23.185642 46.431641 26.728516 C 49.675359 28.163167 50.849952 29.534391 51.669922 31.171875 C 52.489891 32.809359 52.852789 35.064259 53.054688 37.974609 C 53.458484 43.79531 53.359931 52.614843 60.644531 59.40625 A 5.0005 5.0005 0 0 0 67.476562 59.392578 C 74.721132 52.589315 74.598912 43.774931 75.001953 37.943359 C 75.203473 35.027574 75.568962 32.764152 76.390625 31.121094 C 77.212288 29.478036 78.384882 28.107106 81.621094 26.675781 C 89.631293 23.132981 95.608151 22.842949 102.46484 21.589844 C 104.1441 21.282949 105.86869 20.889789 107.63086 20.369141 z "
       transform="translate(0,-64)"
       id="path2106" />
  </g>
</svg>
