<?xml version="1.0" encoding="UTF-8" standalone="no"?>
<!-- Created with Inkscape (http://www.inkscape.org/) -->

<svg
   xmlns:dc="http://purl.org/dc/elements/1.1/"
   xmlns:cc="http://creativecommons.org/ns#"
   xmlns:rdf="http://www.w3.org/1999/02/22-rdf-syntax-ns#"
   xmlns:svg="http://www.w3.org/2000/svg"
   xmlns="http://www.w3.org/2000/svg"
   xmlns:sodipodi="http://sodipodi.sourceforge.net/DTD/sodipodi-0.dtd"
   xmlns:inkscape="http://www.inkscape.org/namespaces/inkscape"
   width="128"
   height="128"
   id="svg7163"
   sodipodi:version="0.32"
   inkscape:version="0.92.3 (2405546, 2018-03-11)"
   sodipodi:docname="_temp.svg"
   inkscape:export-filename="/home/lazka/Desktop/afaf.png"
   inkscape:export-xdpi="90.000000"
   inkscape:export-ydpi="90.000000"
   version="1.1">
  <defs
     id="defs7165" />
  <sodipodi:namedview
     id="base"
     pagecolor="#ffffff"
     bordercolor="#555555"
     borderopacity="1.0000000"
     inkscape:pageopacity="0"
     inkscape:pageshadow="2"
     inkscape:zoom="1.2761068"
     inkscape:cx="-149.00051"
     inkscape:cy="-26.937308"
     inkscape:current-layer="g4136"
     showgrid="false"
     inkscape:document-units="px"
     inkscape:grid-bbox="true"
     inkscape:window-width="1366"
     inkscape:window-height="743"
     inkscape:window-x="0"
     inkscape:window-y="25"
     showborder="true"
     inkscape:showpageshadow="true"
     borderlayer="false"
     inkscape:window-maximized="1">
    <inkscape:grid
       id="GridFromPre046Settings"
       type="xygrid"
       originx="0px"
       originy="0px"
       spacingx="1px"
       spacingy="1px"
       color="#3f3fff"
       empcolor="#3f3fff"
       opacity="1.0000000"
       empopacity="1.0000000"
       empspacing="5"
       visible="true"
       enabled="true"
       snapvisiblegridlinesonly="true" />
  </sodipodi:namedview>
  <metadata
     id="metadata7168">
    <rdf:RDF>
      <cc:Work
         rdf:about="">
        <dc:format>image/svg+xml</dc:format>
        <dc:type
           rdf:resource="http://purl.org/dc/dcmitype/StillImage" />
        <dc:title />
      </cc:Work>
    </rdf:RDF>
  </metadata>
  <g
     id="layer1"
     inkscape:label="Layer 1"
     inkscape:groupmode="layer"
     transform="translate(0,112)">
    <g
       id="g4136"
       transform="matrix(2,0,0,2,0.3918161,-16)">
      <path
         style="color:#000000;font-style:normal;font-variant:normal;font-weight:normal;font-stretch:normal;font-size:medium;line-height:normal;font-family:sans-serif;font-variant-ligatures:normal;font-variant-position:normal;font-variant-caps:normal;font-variant-numeric:normal;font-variant-alternates:normal;font-feature-settings:normal;text-indent:0;text-align:start;text-decoration:none;text-decoration-line:none;text-decoration-style:solid;text-decoration-color:#000000;letter-spacing:normal;word-spacing:normal;text-transform:none;writing-mode:lr-tb;direction:ltr;text-orientation:mixed;dominant-baseline:auto;baseline-shift:baseline;text-anchor:start;white-space:normal;shape-padding:0;clip-rule:nonzero;display:inline;overflow:visible;visibility:visible;opacity:1;isolation:auto;mix-blend-mode:normal;color-interpolation:sRGB;color-interpolation-filters:linearRGB;solid-color:#000000;solid-opacity:1;vector-effect:none;fill:#bebebe;fill-opacity:1;fill-rule:nonzero;stroke:none;stroke-width:5;stroke-linecap:butt;stroke-linejoin:round;stroke-miterlimit:4;stroke-dasharray:none;stroke-dashoffset:0;stroke-opacity:1;color-rendering:auto;image-rendering:auto;shape-rendering:auto;text-rendering:auto;enable-background:accumulate"
         d="M 43.935547 8.9316406 C 39.22569 9.0799734 35.314853 11.797896 33.314453 15.4375 C 31.188923 19.304766 31.228467 24.440222 34.462891 28.347656 C 37.487823 32.777396 42.330351 36.171917 47.716797 37.765625 C 51.800575 38.973909 56.274337 39.118304 60.373047 37.660156 C 60.383247 63.189272 60.486328 91.280996 60.486328 116.50391 A 2.50025 2.50025 0 0 0 62.357422 118.92578 C 64.230468 119.41152 66.50835 118.77314 67.572266 117.37109 C 68.63618 115.96905 68.789719 114.51569 68.904297 113.13672 C 69.018877 111.75775 68.991478 110.38676 69.017578 109.23438 C 69.043698 108.08199 69.201997 107.11939 69.251953 106.99219 A 2.50025 2.50025 0 0 0 69.373047 106.58203 C 70.418871 101.53317 73.513172 97.603356 77.513672 93.785156 C 81.514172 89.966957 86.353213 86.392236 90.341797 82.019531 C 97.273003 74.444284 98.197063 62.860008 92.095703 54.4375 C 91.534239 53.66243 89.833917 50.872248 88.501953 48.652344 C 87.835969 47.542392 87.241042 46.551293 86.833984 45.898438 C 86.630456 45.572007 86.576776 45.440134 86.271484 45.058594 C 86.195164 44.963214 86.369765 44.899054 85.529297 44.414062 C 85.424237 44.353442 85.100401 44.21903 85.099609 44.21875 C 85.098815 44.218474 84.303378 44.078125 84.302734 44.078125 C 84.30209 44.078119 83.096197 44.374736 83.095703 44.375 C 83.095211 44.375264 82.166358 45.237743 82.166016 45.238281 C 82.165674 45.238817 81.838081 46.010907 81.837891 46.011719 C 81.837701 46.012531 81.779631 46.374176 81.775391 46.5 C 81.766991 46.751646 81.788581 46.894498 81.806641 47.003906 C 81.951761 47.879168 82.00362 47.664982 82.072266 47.816406 A 2.50025 2.50025 0 0 0 82.107422 47.890625 C 85.477794 54.730981 89.194112 61.699611 87.509766 68.113281 C 85.332238 75.884489 77.234256 81.184772 68.642578 82.617188 C 68.605918 82.227157 68.605831 82.126991 68.525391 80.9375 L 68.525391 24.160156 A 2.50025 2.50025 0 0 0 68.337891 23.207031 C 64.658669 14.284133 54.590432 8.698318 44.888672 8.9375 C 44.567916 8.9240673 44.249537 8.9217518 43.935547 8.9316406 z M 45.990234 16.378906 C 49.345108 16.227866 53.332111 17.504784 56.150391 19.65625 C 58.903829 21.758216 60.411909 24.424692 60.130859 27.46875 C 59.345307 29.898752 57.45686 30.94998 54.583984 31.214844 C 51.623532 31.487782 47.996067 30.527877 45.869141 29.109375 A 2.50025 2.50025 0 0 0 45.521484 28.914062 C 43.292974 27.894457 41.020124 25.246088 40.298828 22.816406 C 39.93818 21.601566 39.935004 20.509297 40.240234 19.632812 C 40.544952 18.75782 41.116939 17.986196 42.462891 17.277344 C 42.465091 17.276136 42.464405 17.274838 42.466797 17.273438 C 43.469191 16.752908 44.701102 16.455686 45.990234 16.378906 z M 43.091797 33.269531 C 43.157137 33.313111 43.248235 33.324447 43.314453 33.367188 C 43.361853 33.389547 43.391793 33.439138 43.439453 33.460938 L 43.091797 33.269531 z "
         transform="matrix(0.5,0,0,0.5,-0.19590805,-48)"
         id="path7097" />
    </g>
  </g>
</svg>
